<?xml version="1.0" encoding="UTF-8"?> <svg xmlns="http://www.w3.org/2000/svg" width="49" height="48" viewBox="0 0 49 48" fill="none"><path fill-rule="evenodd" clip-rule="evenodd" d="M30.5109 40.7169C32.6426 40.7169 34.6255 40.0752 36.2755 38.9745L41.8746 44.5735C42.6736 45.3725 43.969 45.3725 44.768 44.5735C45.5669 43.7745 45.5669 42.4791 44.768 41.6801L39.1689 36.0811C40.2697 34.431 40.9114 32.4481 40.9114 30.3164C40.9114 24.5724 36.2549 19.9159 30.5109 19.9159C24.7668 19.9159 20.1104 24.5724 20.1104 30.3164C20.1104 36.0605 24.7668 40.7169 30.5109 40.7169ZM30.5109 36.6251C27.0267 36.6251 24.2022 33.8006 24.2022 30.3164C24.2022 26.8322 27.0267 24.0077 30.5109 24.0077C33.9951 24.0077 36.8196 26.8322 36.8196 30.3164C36.8196 33.8006 33.9951 36.6251 30.5109 36.6251Z" fill="#207DE9"></path><rect x="2.43677" y="4.58035" width="44.7265" height="25.5096" fill="#DBF3F1"></rect><path d="M40.909 30.09C40.7885 24.4505 36.1793 19.9159 30.5109 19.9159C24.8425 19.9159 20.2333 24.4505 20.1128 30.09H24.2062C24.3254 26.7107 27.1025 24.0077 30.5109 24.0077C33.9193 24.0077 36.6964 26.7107 36.8156 30.09H40.909Z" fill="#6ADFD7"></path></svg> 