<?xml version="1.0" encoding="UTF-8"?> <svg xmlns="http://www.w3.org/2000/svg" width="49" height="48" viewBox="0 0 49 48" fill="none"><path fill-rule="evenodd" clip-rule="evenodd" d="M13.4357 18.0158C13.7037 17.2857 14.5234 16.5306 15.5561 16.8368C16.5905 17.1435 17.2638 17.8821 17.6638 18.7776C18.0546 19.6527 18.2011 20.7048 18.2097 21.7632C18.2235 23.4673 17.8802 25.3414 17.4324 26.8707H20.591C22.7605 26.8707 24.336 28.9338 23.7649 31.0267L21.6758 38.6825C20.8516 41.703 17.7779 43.5231 14.7332 42.7937L6.39734 40.7968V29.1563C8.79165 27.4768 10.3165 25.3329 11.5768 22.7655C12.103 21.6935 12.4881 20.629 13.011 19.1837L13.011 19.1836L13.0111 19.1835C13.1424 18.8204 13.2825 18.4332 13.4357 18.0158ZM4.89734 30.0831C4.55781 30.2676 4.20328 30.445 3.83264 30.615C2.2963 31.4859 1.82446 31.8604 1.82446 33.2876V38.0381C1.94522 39.3245 3.4701 40 4.89734 40.4155V30.0831Z" fill="#207DE9"></path><path d="M22.6364 7.37622C18.6834 4.38991 13.2647 4.26243 9.17565 7.05954C3.12659 11.1974 2.42227 19.8549 7.72294 24.9161L24.6426 41.0716C25.1598 41.5654 25.9738 41.5654 26.4909 41.0716L43.408 24.9168C48.7086 19.8552 48.0038 11.1975 41.9543 7.05981C37.8641 4.26215 32.4437 4.39071 28.4907 7.37914L25.5665 9.58981L22.6364 7.37622Z" fill="#DBF3F1"></path><path fill-rule="evenodd" clip-rule="evenodd" d="M21.7721 38.3306L23.7651 31.0267C24.3362 28.9338 22.7607 26.8707 20.5912 26.8707H17.4327C17.8804 25.3414 18.2237 23.4673 18.2099 21.7632C18.2013 20.7048 18.0549 19.6527 17.664 18.7776C17.264 17.8821 16.5907 17.1435 15.5563 16.8368C14.5236 16.5306 13.7039 17.2857 13.4359 18.0158C13.2828 18.433 13.1428 18.82 13.0115 19.183L13.0112 19.1836L13.0112 19.1837L13.0112 19.1838C12.4883 20.6291 12.1032 21.6935 11.577 22.7655C10.9204 24.1031 10.1919 25.3258 9.30615 26.4277L21.7721 38.3306Z" fill="#6ADFD7"></path></svg> 