<?xml version="1.0" encoding="UTF-8"?> <svg xmlns="http://www.w3.org/2000/svg" width="49" height="48" viewBox="0 0 49 48" fill="none"><path d="M35.7463 17.6798C29.9792 17.6798 25.304 22.355 25.304 28.1222C25.304 31.1717 26.6123 33.917 28.6956 35.8249C29.0186 36.1208 29.2347 36.454 29.3225 36.7963L30.2375 40.365H41.2552L42.1702 36.7963C42.258 36.454 42.4741 36.1208 42.7971 35.8249C44.8804 33.917 46.1887 31.1717 46.1887 28.1222C46.1887 22.355 41.5135 17.6798 35.7463 17.6798ZM40.7935 42.1654H30.6992L31.1478 43.9153C31.5358 45.4283 32.8994 46.4864 34.4614 46.4864H37.0313C38.5933 46.4864 39.9569 45.4283 40.3449 43.9153L40.7935 42.1654Z" fill="#207DE9"></path><circle cx="21.4616" cy="20.7645" r="19.2504" fill="#DBF3F1"></circle><path fill-rule="evenodd" clip-rule="evenodd" d="M29.5734 37.7748C36.3218 34.7829 41.0292 28.0251 41.0292 20.1678C41.0292 19.808 41.0193 19.4505 40.9998 19.0956C39.4566 18.1955 37.6617 17.6798 35.7463 17.6798C29.9792 17.6798 25.304 22.355 25.304 28.1222C25.304 31.1717 26.6123 33.917 28.6956 35.8249C29.0186 36.1208 29.2347 36.454 29.3225 36.7963L29.5734 37.7748Z" fill="#6ADFD7"></path></svg> 