<?xml version="1.0" encoding="UTF-8"?> <svg xmlns="http://www.w3.org/2000/svg" width="49" height="48" viewBox="0 0 49 48" fill="none"><g clip-path="url(#clip0_219_12647)"><path d="M40.1994 46.7663C39.5417 47.2826 38.7217 47.4354 37.9159 47.3399C32.3016 46.6748 27.6524 45.9791 21.8338 44.9668C20.9405 44.8113 20.4125 44.3556 20.3666 43.578C20.2495 41.5947 21.7036 39.8327 23.7068 39.603L28.3871 39.7803L21.8338 27.2001C21.15 25.8715 21.6726 24.2402 23.0011 23.5563C24.3297 22.8725 25.961 23.3951 26.6448 24.7236L29.9449 30.8471L36.7292 29.9458C39.5625 29.1436 42.492 30.8688 43.1647 33.7355L45.1045 40.9262C45.345 41.9511 44.9691 43.0224 44.141 43.6724L40.1994 46.7663Z" fill="#207DE9"></path><circle cx="19.4106" cy="15.5273" r="15.5661" fill="#DBF3F1"></circle><path fill-rule="evenodd" clip-rule="evenodd" d="M28.4997 28.1656C27.028 29.2259 25.3637 30.0354 23.5693 30.5317L21.8337 27.2001C21.1499 25.8715 21.6725 24.2402 23.001 23.5563C24.3296 22.8725 25.9609 23.3951 26.6448 24.7236L28.4997 28.1656Z" fill="#6ADFD7"></path></g><defs><clipPath id="clip0_219_12647"><rect width="48" height="48" fill="white" transform="translate(0.600098 0.000244141)"></rect></clipPath></defs></svg> 