<?xml version="1.0" encoding="UTF-8"?> <svg xmlns="http://www.w3.org/2000/svg" width="49" height="48" viewBox="0 0 49 48" fill="none"><g clip-path="url(#clip0_219_16263)"><rect x="1.92102" y="1.62433" width="44.9578" height="25.3847" fill="#EBF5E0"></rect><path d="M39.9993 45.8825C39.3416 46.3988 38.5216 46.5515 37.7158 46.4561C32.1016 45.791 27.4523 45.0953 21.6338 44.083C20.7404 43.9275 20.2124 43.4718 20.1665 42.6942C20.0495 40.7109 21.5036 38.9489 23.5068 38.7191L28.1871 38.8964L21.6338 26.3162C20.9499 24.9877 21.4725 23.3564 22.8011 22.6725C24.1296 21.9887 25.7609 22.5113 26.4448 23.8398L29.7448 29.9633L36.5292 29.062C39.3624 28.2598 42.292 29.985 42.9646 32.8517L44.9044 40.0424C45.1449 41.0672 44.7691 42.1386 43.9409 42.7886L39.9993 45.8825Z" fill="#207DE9"></path><path fill-rule="evenodd" clip-rule="evenodd" d="M28.1528 27.0091H21.9947L21.6338 26.3162C20.95 24.9877 21.4726 23.3563 22.8011 22.6725C24.1296 21.9886 25.761 22.5112 26.4448 23.8398L28.1528 27.0091Z" fill="#B6E684"></path><path d="M14.0534 9.5415C15.2021 9.5415 16.0153 10.1277 16.4927 11.3001C16.5684 11.5459 16.6062 11.8107 16.6062 12.0943C16.6062 12.7703 16.3225 13.3849 15.7553 13.938V13.9664C16.4549 14.5148 16.8047 15.2239 16.8047 16.0937C16.8047 17.1858 16.2753 18.0083 15.2163 18.5614C14.876 18.7316 14.4978 18.8167 14.0817 18.8167H9.6285C9.17467 18.7742 8.94775 18.5662 8.94775 18.1927L8.97612 17.9941V14.4202C8.97612 14.2264 8.96666 14.0751 8.94775 13.9664C8.96666 13.8576 8.97612 13.7064 8.97612 13.5125V10.591C8.97612 10.4397 8.96666 10.2601 8.94775 10.0521C9.05648 9.71169 9.24558 9.5415 9.51505 9.5415H14.0534ZM10.1107 10.7328V13.3707H14.0534C14.6774 13.3707 15.1029 13.0493 15.3298 12.4063C15.3676 12.3212 15.3865 12.1889 15.3865 12.0092C15.3865 11.4419 15.0651 11.0354 14.4221 10.7895C14.337 10.7517 14.2141 10.7328 14.0534 10.7328H10.1107ZM10.1107 14.562V17.6254H13.6279C14.5687 17.6254 15.1738 17.3134 15.4432 16.6894C15.5189 16.453 15.5567 16.2545 15.5567 16.0937V16.0654C15.5567 15.3515 15.1596 14.8599 14.3654 14.5904C14.2378 14.5715 14.1337 14.562 14.0534 14.562H10.1107Z" fill="#B6E684"></path><path d="M20.529 9.48477H20.6425C20.9592 9.48477 21.1389 9.70223 21.1814 10.1372V15.3846C21.1814 15.777 21.3989 16.2214 21.8338 16.7177C22.5145 17.3607 23.3277 17.6821 24.2731 17.6821C25.3935 17.6821 26.3012 17.2188 26.9961 16.2923C27.2231 15.8479 27.3365 15.5359 27.3365 15.3562L27.3082 15.0159V10.1372C27.3507 9.70223 27.5303 9.48477 27.8471 9.48477H27.9605C28.2773 9.48477 28.4569 9.70223 28.4995 10.1372V14.7606C28.4995 16.6516 27.5918 17.928 25.7765 18.5898C25.2281 18.7411 24.7364 18.8167 24.3015 18.8167H24.188C22.5571 18.8167 21.2901 18.1171 20.3872 16.7177C20.1225 16.1552 19.9901 15.5501 19.9901 14.9024V10.1372C20.0326 9.70223 20.2123 9.48477 20.529 9.48477Z" fill="#B6E684"></path><path d="M31.9117 9.59823H32.0252C32.2663 9.59823 32.5688 9.89133 32.9328 10.4775L35.5991 14.0515L38.861 9.76842C38.9934 9.65496 39.1352 9.59823 39.2865 9.59823C39.6033 9.59823 39.7924 9.79678 39.8538 10.1939C39.8538 10.4019 39.5607 10.8557 38.9745 11.5554L36.1948 15.2711V18.1643C36.1522 18.5993 35.9726 18.8167 35.6558 18.8167H35.5424C35.2257 18.8167 35.046 18.5993 35.0035 18.1643V15.2711C32.7248 12.1983 31.5335 10.5721 31.4295 10.3924L31.4012 10.2223V10.1088C31.4721 9.76842 31.6423 9.59823 31.9117 9.59823Z" fill="#B6E684"></path><path fill-rule="evenodd" clip-rule="evenodd" d="M20.5526 10.1672V14.9024C20.5526 15.4577 20.6629 15.9695 20.8806 16.4446C21.6806 17.6659 22.7653 18.2542 24.1881 18.2542H24.3015C24.6678 18.2542 25.1006 18.1911 25.6049 18.0536C26.4195 17.753 26.9897 17.3313 27.3603 16.8101C27.5604 16.5287 27.7118 16.205 27.8091 15.8337C27.7998 15.862 27.79 15.8899 27.7801 15.9172C27.7126 16.1028 27.6164 16.3144 27.4971 16.5481L27.4752 16.5911L27.4462 16.6298C26.6492 17.6924 25.5775 18.2446 24.2732 18.2446C23.1856 18.2446 22.2339 17.8693 21.4476 17.1267L21.4283 17.1084L21.4107 17.0884C20.9426 16.5541 20.6189 15.98 20.6189 15.3846V10.1672C20.6126 10.1141 20.6041 10.0749 20.5958 10.0473H20.5757C20.5675 10.0749 20.5589 10.1141 20.5526 10.1672ZM27.8989 15.3702C27.9241 15.1781 27.937 14.9751 27.937 14.7606V10.1672C27.9307 10.1141 27.9221 10.0749 27.9139 10.0473H27.8937C27.8855 10.0749 27.877 10.1141 27.8707 10.1672V14.9925L27.899 15.3328V15.3562C27.899 15.3609 27.899 15.3655 27.8989 15.3702ZM19.7231 9.28962C19.9337 9.03462 20.2261 8.92227 20.529 8.92227H20.6425C20.9454 8.92227 21.2378 9.03462 21.4484 9.28962C21.6389 9.52013 21.7146 9.81024 21.7412 10.0824L21.7439 10.1097V15.3846C21.7439 15.5712 21.8519 15.8793 22.2393 16.3268C22.8103 16.858 23.4787 17.1196 24.2732 17.1196C25.1945 17.1196 25.9293 16.7573 26.5174 15.9926C26.6131 15.8025 26.6801 15.6502 26.7228 15.5328C26.7586 15.4344 26.7694 15.3815 26.7726 15.3629L26.7457 15.0393V10.1097L26.7483 10.0824C26.775 9.81024 26.8507 9.52013 27.0411 9.28962C27.2518 9.03462 27.5442 8.92227 27.8471 8.92227H27.9606C28.2635 8.92227 28.5559 9.03462 28.7665 9.28962C28.9569 9.52013 29.0327 9.81024 29.0593 10.0824L29.062 10.1097V14.7606C29.062 15.7982 28.8117 16.7104 28.2771 17.4621C27.7433 18.2129 26.9586 18.7575 25.9692 19.1183L25.9479 19.126L25.9261 19.1321C25.343 19.2929 24.7998 19.3792 24.3015 19.3792H24.1881C22.3612 19.3792 20.9185 18.5785 19.9146 17.0227L19.8942 16.9912L19.8783 16.9573C19.5768 16.3166 19.4276 15.6293 19.4276 14.9024V10.1097L19.4303 10.0824C19.4569 9.81024 19.5327 9.52013 19.7231 9.28962ZM9.51904 10.1331C9.53184 10.3001 9.53864 10.4532 9.53864 10.591V13.5125C9.53864 13.6776 9.53247 13.8316 9.51606 13.9664C9.53247 14.1012 9.53864 14.2552 9.53864 14.4202V18.0341L9.51199 18.2207C9.53298 18.2299 9.57706 18.2449 9.65756 18.2542H14.0818C14.4168 18.2542 14.7063 18.1867 14.9605 18.0605C15.42 17.8197 15.7339 17.5371 15.9347 17.2252C16.1343 16.9151 16.2423 16.5447 16.2423 16.0937C16.2423 15.4011 15.9754 14.8536 15.4083 14.4091L15.1928 14.2402V13.7008L15.3626 13.5353C15.8415 13.0683 16.0437 12.5926 16.0437 12.0943C16.0437 11.8705 16.0152 11.6696 15.962 11.4885C15.7543 10.9877 15.4922 10.6511 15.1959 10.4374C14.8987 10.2232 14.5276 10.104 14.0534 10.104H9.53522C9.53074 10.111 9.52524 10.1205 9.51904 10.1331ZM8.79485 9.25104C8.99918 9.06714 9.25036 8.979 9.51507 8.979H14.0534C14.728 8.979 15.3379 9.15293 15.8538 9.52487C16.3659 9.89404 16.7455 10.4295 17.0137 11.0879L17.0231 11.1109L17.0304 11.1347C17.1241 11.4393 17.1687 11.7603 17.1687 12.0943C17.1687 12.7651 16.9433 13.3739 16.5288 13.9141C17.0818 14.5093 17.3673 15.2433 17.3673 16.0937C17.3673 16.7347 17.2105 17.3217 16.8806 17.8341C16.5526 18.3438 16.0737 18.7482 15.4768 19.06L15.4679 19.0646C15.0424 19.2774 14.5768 19.3792 14.0818 19.3792H9.60221L9.57602 19.3768C9.28313 19.3493 8.97599 19.2617 8.73787 19.0435C8.48384 18.8106 8.38527 18.5007 8.38527 18.1927V18.1527L8.41364 17.9542V14.4202C8.41364 14.2384 8.40433 14.1245 8.39359 14.0628L8.37683 13.9664L8.39359 13.87C8.40433 13.8082 8.41364 13.6943 8.41364 13.5125V10.591C8.41364 10.4617 8.40549 10.2999 8.38758 10.103L8.37726 9.98948L8.41195 9.8809C8.485 9.65222 8.60211 9.42451 8.79485 9.25104ZM31.9637 10.1757L31.9648 10.1826C31.9699 10.19 31.9755 10.1981 31.9816 10.2068C32.0262 10.2711 32.0882 10.3587 32.1685 10.4706C32.3288 10.694 32.5574 11.0084 32.8548 11.4144C33.4495 12.2262 34.3162 13.3999 35.4553 14.9361L35.566 15.0853V18.1343C35.5723 18.1874 35.5809 18.2266 35.5891 18.2542H35.6092C35.6174 18.2266 35.626 18.1874 35.6323 18.1343V15.084L38.5334 11.206L38.5434 11.1941C38.8302 10.8518 39.0332 10.5837 39.1615 10.3851C39.2187 10.2966 39.2553 10.2306 39.2771 10.1845C39.2749 10.1774 39.2728 10.171 39.2707 10.1652C39.2685 10.1663 39.2658 10.1677 39.2626 10.1696L35.5945 14.986L32.4677 10.7947L32.455 10.7743C32.284 10.4989 32.1455 10.3227 32.0416 10.2221C32.0088 10.1903 31.9851 10.1714 31.9701 10.1607H31.9681C31.9667 10.1652 31.9652 10.1705 31.9637 10.1757ZM31.1843 9.32812C31.3879 9.12451 31.6473 9.03573 31.9117 9.03573H32.0252C32.3684 9.03573 32.6404 9.23584 32.8243 9.41405C33.0185 9.60217 33.209 9.85826 33.3978 10.16L35.6038 13.117L38.4497 9.38015L38.495 9.34134C38.7129 9.1546 38.9808 9.03573 39.2865 9.03573C39.5728 9.03573 39.8558 9.13089 40.0732 9.35921C40.276 9.57206 40.3692 9.84609 40.4097 10.1079L40.4163 10.1506V10.1939C40.4163 10.3622 40.3615 10.5147 40.3132 10.6238C40.2604 10.7429 40.1888 10.8681 40.1065 10.9954C39.9436 11.2478 39.7103 11.5524 39.4157 11.9047L36.7573 15.4583V18.1918L36.7546 18.2191C36.728 18.4913 36.6522 18.7814 36.4618 19.0119C36.2512 19.2669 35.9588 19.3792 35.6559 19.3792H35.5424C35.2395 19.3792 34.9471 19.2669 34.7365 19.0119C34.546 18.7814 34.4703 18.4913 34.4437 18.2191L34.441 18.1918V15.4569C33.3558 13.9932 32.5244 12.8671 31.9473 12.0793C31.6491 11.6722 31.4179 11.3543 31.2543 11.1263C31.1014 10.913 30.9862 10.7493 30.9427 10.6743L30.8915 10.5858L30.8387 10.2688V10.0508L30.8505 9.99407C30.8989 9.76196 30.9945 9.51793 31.1843 9.32812ZM9.54822 10.1703H14.0534C14.2385 10.1703 14.4473 10.1894 14.6346 10.2686C15.0156 10.416 15.3482 10.6284 15.5867 10.9299C15.8335 11.2421 15.949 11.6117 15.949 12.0092C15.949 12.1998 15.9326 12.4195 15.8542 12.6106C15.7139 13.0002 15.4973 13.3384 15.1796 13.5784C14.8533 13.825 14.4662 13.9332 14.0534 13.9332H9.54822V10.1703ZM10.6732 11.2953V12.8082H14.0534C14.2646 12.8082 14.4023 12.7557 14.5014 12.6808C14.6045 12.6029 14.7125 12.4653 14.7994 12.2191L14.8068 12.1982L14.8111 12.1883C14.8121 12.1841 14.8137 12.1761 14.8155 12.1637C14.8202 12.131 14.824 12.0808 14.824 12.0092C14.824 11.8395 14.7788 11.7221 14.7042 11.6277C14.6236 11.5258 14.4783 11.4132 14.2213 11.3149L14.2073 11.3096L14.2011 11.3069C14.1978 11.306 14.1912 11.3046 14.1806 11.303C14.1542 11.2989 14.1129 11.2953 14.0534 11.2953H10.6732ZM9.54822 13.9995H14.0534C14.1727 13.9995 14.3071 14.0131 14.4478 14.034L14.4981 14.0414L14.5461 14.0577C15.0119 14.2157 15.4124 14.4561 15.6965 14.8078C15.9863 15.1666 16.1192 15.5974 16.1192 16.0654V16.0937C16.1192 16.3353 16.0638 16.5957 15.979 16.8608L15.9706 16.8871L15.9597 16.9124C15.5668 17.8223 14.691 18.1879 13.6279 18.1879H9.54822V13.9995ZM10.6732 15.1245V17.0629H13.6279C14.4274 17.0629 14.7651 16.8164 14.9164 16.4897C14.9758 16.2978 14.9942 16.17 14.9942 16.0937V16.0654C14.9942 15.8195 14.9286 15.6475 14.8213 15.5147C14.7138 15.3816 14.5321 15.2483 14.232 15.1397C14.1461 15.1283 14.0883 15.1245 14.0534 15.1245H10.6732Z" fill="#B6E684"></path></g><defs><clipPath id="clip0_219_16263"><rect width="48" height="48" fill="white" transform="translate(0.399963)"></rect></clipPath></defs></svg> 